<?xml version="1.0" encoding="UTF-8" standalone="no"?>
<!-- Created with Inkscape (http://www.inkscape.org/) -->

<svg
   xmlns:dc="http://purl.org/dc/elements/1.1/"
   xmlns:cc="http://creativecommons.org/ns#"
   xmlns:rdf="http://www.w3.org/1999/02/22-rdf-syntax-ns#"
   xmlns:svg="http://www.w3.org/2000/svg"
   xmlns="http://www.w3.org/2000/svg"
   xmlns:sodipodi="http://sodipodi.sourceforge.net/DTD/sodipodi-0.dtd"
   xmlns:inkscape="http://www.inkscape.org/namespaces/inkscape"
   width="675"
   height="675"
   id="svg2"
   version="1.1"
   inkscape:version="0.48.3.1 r9886"
   sodipodi:docname="New document 1">
  <defs
     id="defs4" />
  <sodipodi:namedview
     id="base"
     pagecolor="#ffffff"
     bordercolor="#666666"
     borderopacity="1.0"
     inkscape:pageopacity="0.0"
     inkscape:pageshadow="2"
     inkscape:zoom="0.78666667"
     inkscape:cx="337.5"
     inkscape:cy="337.5"
     inkscape:document-units="in"
     inkscape:current-layer="layer1"
     showgrid="true"
     units="in"
     borderlayer="true"
     inkscape:showpageshadow="false"
     showguides="true"
     inkscape:guide-bbox="true"
     guidecolor="#ff0096"
     guideopacity="0.31372549"
     inkscape:window-width="1280"
     inkscape:window-height="749"
     inkscape:window-x="0"
     inkscape:window-y="27"
     inkscape:window-maximized="1">
    <inkscape:grid
       type="xygrid"
       id="grid2985"
       empspacing="4"
       visible="true"
       enabled="true"
       snapvisiblegridlinesonly="true"
       units="in"
       spacingx="0.25in"
       spacingy="0.25in"
       color="#f000ff"
       opacity="0.05882353"
       empcolor="#f000ff"
       empopacity="0.11764706" />
    <sodipodi:guide
       orientation="1,0"
       position="337.5,337.5"
       id="guide3759" />
    <sodipodi:guide
       orientation="0,1"
       position="337.5,337.5"
       id="guide3761" />
  </sodipodi:namedview>
  <metadata
     id="metadata7">
    <rdf:RDF>
      <cc:Work
         rdf:about="">
        <dc:format>image/svg+xml</dc:format>
        <dc:type
           rdf:resource="http://purl.org/dc/dcmitype/StillImage" />
        <dc:title></dc:title>
      </cc:Work>
    </rdf:RDF>
  </metadata>
  <g
     inkscape:label="Layer 1"
     inkscape:groupmode="layer"
     id="layer1"
     transform="translate(0,-377.35975)">
    <path
       style="fill:none;fill-opacity:1;stroke:#ff0000;stroke-opacity:1;stroke-width:1.77165353999999997;stroke-miterlimit:4;stroke-dasharray:none;stroke-linejoin:round;stroke-linecap:round"
       d="m 337.5,22.5 c -24.48046,0 -48.30561,2.797666 -71.17791,8.085792 C 229.97721,45.334315 198.66696,45 158.64959,45 L 67.5,45 C 55.034995,45 45,55.034995 45,67.5 l 0,152.90625 C 30.494669,256.60664 22.5,296.117 22.5,337.5 c 0,41.383 7.994669,80.89336 22.5,117.09375 L 45,607.5 c 0,12.46501 10.034995,22.5 22.5,22.5 l 90.25073,0 c 44.74927,0 70.0253,4.51701 101.1332,12.59835 25.12906,6.46147 51.46966,9.90165 78.61607,9.90165 26.17346,0 51.59784,-3.198 75.90949,-9.21856 C 447.82784,628.74166 478.69108,630 516.84712,630 L 607.5,630 c 12.46501,0 22.5,-10.03499 22.5,-22.5 l 0,-152.90625 C 644.50533,418.39336 652.5,378.883 652.5,337.5 652.5,296.117 644.50533,256.60664 630,220.40625 L 630,67.5 C 630,55.034995 619.96501,45 607.5,45 l -94.24834,0 C 472.5,45 440.43518,37.986957 408.29496,30.497506 385.53972,25.266533 361.84387,22.5 337.5,22.5 z"
       transform="translate(0,377.35975)"
       id="path2989"
       inkscape:connector-curvature="0"
       sodipodi:nodetypes="sccsscscssccsccsscscssccs" />
    <path
       sodipodi:type="arc"
       style="fill:none;stroke:#ff00ff;stroke-width:1.10728346;stroke-linecap:round;stroke-linejoin:round;stroke-miterlimit:4;stroke-opacity:1;stroke-dasharray:none;stroke-dashoffset:0"
       id="path3767"
       sodipodi:cx="326.25"
       sodipodi:cy="326.25"
       sodipodi:rx="56.25"
       sodipodi:ry="56.25"
       d="m 382.5,326.25 a 56.25,56.25 0 1 1 -112.5,0 56.25,56.25 0 1 1 112.5,0 z"
       transform="matrix(1.6,0,0,1.6,-184.50001,192.85974)" />
    <g
       id="g3814"
       transform="translate(-3.3049447,458.9185)">
      <path
         transform="matrix(0.55275591,0,0,0.55275591,46.470472,462.61172)"
         d="M 90,78.75 C 90,84.963203 84.963203,90 78.75,90 72.536797,90 67.5,84.963203 67.5,78.75 67.5,72.536797 72.536797,67.5 78.75,67.5 84.963203,67.5 90,72.536797 90,78.75 z"
         sodipodi:ry="11.25"
         sodipodi:rx="11.25"
         sodipodi:cy="78.75"
         sodipodi:cx="78.75"
         id="path3769"
         style="fill:none;stroke:#ff00ff;stroke-width:1.92307675;stroke-linecap:round;stroke-linejoin:round;stroke-miterlimit:4;stroke-opacity:1;stroke-dasharray:none;stroke-dashoffset:0"
         sodipodi:type="arc" />
      <path
         transform="matrix(0.55275591,0,0,0.55275591,548.67047,462.61172)"
         d="M 90,78.75 C 90,84.963203 84.963203,90 78.75,90 72.536797,90 67.5,84.963203 67.5,78.75 67.5,72.536797 72.536797,67.5 78.75,67.5 84.963203,67.5 90,72.536797 90,78.75 z"
         sodipodi:ry="11.25"
         sodipodi:rx="11.25"
         sodipodi:cy="78.75"
         sodipodi:cx="78.75"
         id="path3769-7"
         style="fill:none;stroke:#ff00ff;stroke-width:1.92307675;stroke-linecap:round;stroke-linejoin:round;stroke-miterlimit:4;stroke-opacity:1;stroke-dasharray:none;stroke-dashoffset:0"
         sodipodi:type="arc" />
      <g
         transform="translate(135,-614.7)"
         id="g3810">
        <path
           sodipodi:type="arc"
           style="fill:none;stroke:#ff00ff;stroke-width:1.92307675;stroke-linecap:round;stroke-linejoin:round;stroke-miterlimit:4;stroke-opacity:1;stroke-dasharray:none;stroke-dashoffset:0"
           id="path3769-5"
           sodipodi:cx="78.75"
           sodipodi:cy="78.75"
           sodipodi:rx="11.25"
           sodipodi:ry="11.25"
           d="M 90,78.75 C 90,84.963203 84.963203,90 78.75,90 72.536797,90 67.5,84.963203 67.5,78.75 67.5,72.536797 72.536797,67.5 78.75,67.5 84.963203,67.5 90,72.536797 90,78.75 z"
           transform="matrix(0.55275591,0,0,0.55275591,-88.529528,575.11172)" />
        <path
           sodipodi:type="arc"
           style="fill:none;stroke:#ff00ff;stroke-width:1.92307675;stroke-linecap:round;stroke-linejoin:round;stroke-miterlimit:4;stroke-opacity:1;stroke-dasharray:none;stroke-dashoffset:0"
           id="path3769-7-6"
           sodipodi:cx="78.75"
           sodipodi:cy="78.75"
           sodipodi:rx="11.25"
           sodipodi:ry="11.25"
           d="M 90,78.75 C 90,84.963203 84.963203,90 78.75,90 72.536797,90 67.5,84.963203 67.5,78.75 67.5,72.536797 72.536797,67.5 78.75,67.5 84.963203,67.5 90,72.536797 90,78.75 z"
           transform="matrix(0.55275591,0,0,0.55275591,413.67047,575.11172)" />
      </g>
    </g>
    <path
       sodipodi:type="arc"
       style="fill:none;stroke:#000000;stroke-width:0.93708897;stroke-linecap:round;stroke-linejoin:round;stroke-miterlimit:4;stroke-opacity:1;stroke-dasharray:none;stroke-dashoffset:0"
       id="path3821"
       sodipodi:cx="303.75"
       sodipodi:cy="348.75"
       sodipodi:rx="213.75"
       sodipodi:ry="213.75"
       d="m 517.5,348.75 a 213.75,213.75 0 1 1 -427.5,0 213.75,213.75 0 1 1 427.5,0 z"
       transform="matrix(1.1343556,0,0,1.1343556,-7.0605135,319.3065)" />
  </g>
</svg>
