<?xml version="1.0" encoding="UTF-8" standalone="no"?>
<!-- Created with Inkscape (http://www.inkscape.org/) -->

<svg
   xmlns:dc="http://purl.org/dc/elements/1.1/"
   xmlns:cc="http://creativecommons.org/ns#"
   xmlns:rdf="http://www.w3.org/1999/02/22-rdf-syntax-ns#"
   xmlns:svg="http://www.w3.org/2000/svg"
   xmlns="http://www.w3.org/2000/svg"
   xmlns:sodipodi="http://sodipodi.sourceforge.net/DTD/sodipodi-0.dtd"
   xmlns:inkscape="http://www.inkscape.org/namespaces/inkscape"
   width="675"
   height="675"
   id="svg2"
   version="1.1"
   inkscape:version="0.48.5 r10040"
   sodipodi:docname="lazy-susan.svg">
  <defs
     id="defs4" />
  <sodipodi:namedview
     id="base"
     pagecolor="#ffffff"
     bordercolor="#666666"
     borderopacity="1.0"
     inkscape:pageopacity="0.0"
     inkscape:pageshadow="2"
     inkscape:zoom="0.92"
     inkscape:cx="337.5"
     inkscape:cy="337.5"
     inkscape:document-units="in"
     inkscape:current-layer="layer1"
     showgrid="true"
     units="in"
     borderlayer="true"
     inkscape:showpageshadow="false"
     showguides="true"
     inkscape:guide-bbox="true"
     guidecolor="#ff0096"
     guideopacity="0.31372549"
     inkscape:window-width="1440"
     inkscape:window-height="838"
     inkscape:window-x="-8"
     inkscape:window-y="-8"
     inkscape:window-maximized="1">
    <inkscape:grid
       type="xygrid"
       id="grid2985"
       empspacing="4"
       visible="true"
       enabled="true"
       snapvisiblegridlinesonly="true"
       units="in"
       spacingx="0.125in"
       spacingy="0.125in"
       color="#f000ff"
       opacity="0.05882353"
       empcolor="#f000ff"
       empopacity="0.11764706" />
    <sodipodi:guide
       orientation="1,0"
       position="337.5,337.5"
       id="guide3759" />
    <sodipodi:guide
       orientation="0,1"
       position="337.5,337.5"
       id="guide3761" />
  </sodipodi:namedview>
  <metadata
     id="metadata7">
    <rdf:RDF>
      <cc:Work
         rdf:about="">
        <dc:format>image/svg+xml</dc:format>
        <dc:type
           rdf:resource="http://purl.org/dc/dcmitype/StillImage" />
        <dc:title />
      </cc:Work>
    </rdf:RDF>
  </metadata>
  <g
     inkscape:label="Layer 1"
     inkscape:groupmode="layer"
     id="layer1"
     transform="translate(0,-377.35975)">
    <rect
       style="fill:none;stroke:#ff0000;stroke-width:1.70838022;stroke-linecap:round;stroke-linejoin:round;stroke-miterlimit:4;stroke-opacity:1;stroke-dasharray:none"
       id="rect3107"
       width="607.5"
       height="607.5"
       x="33.749996"
       y="411.10974"
       ry="67.500008" />
    <path
       sodipodi:type="arc"
       style="fill:none;stroke:#ff00ff;stroke-width:1.10728346;stroke-linecap:round;stroke-linejoin:round;stroke-miterlimit:4;stroke-opacity:1;stroke-dasharray:none;stroke-dashoffset:0"
       id="path3767"
       sodipodi:cx="326.25"
       sodipodi:cy="326.25"
       sodipodi:rx="56.25"
       sodipodi:ry="56.25"
       d="m 382.5,326.25 c 0,31.06602 -25.18398,56.25 -56.25,56.25 -31.06602,0 -56.25,-25.18398 -56.25,-56.25 0,-31.06602 25.18398,-56.25 56.25,-56.25 31.06602,0 56.25,25.18398 56.25,56.25 z"
       transform="matrix(1.6,0,0,1.6,-184.50001,192.85974)" />
    <g
       id="g3814"
       transform="translate(-3.3049447,458.9185)">
      <path
         transform="matrix(0.55275591,0,0,0.55275591,46.470472,462.61172)"
         d="M 90,78.75 C 90,84.963203 84.963203,90 78.75,90 72.536797,90 67.5,84.963203 67.5,78.75 67.5,72.536797 72.536797,67.5 78.75,67.5 84.963203,67.5 90,72.536797 90,78.75 z"
         sodipodi:ry="11.25"
         sodipodi:rx="11.25"
         sodipodi:cy="78.75"
         sodipodi:cx="78.75"
         id="path3769"
         style="fill:none;stroke:#ff00ff;stroke-width:1.92307675;stroke-linecap:round;stroke-linejoin:round;stroke-miterlimit:4;stroke-opacity:1;stroke-dasharray:none;stroke-dashoffset:0"
         sodipodi:type="arc" />
      <path
         transform="matrix(0.55275591,0,0,0.55275591,548.67047,462.61172)"
         d="M 90,78.75 C 90,84.963203 84.963203,90 78.75,90 72.536797,90 67.5,84.963203 67.5,78.75 67.5,72.536797 72.536797,67.5 78.75,67.5 84.963203,67.5 90,72.536797 90,78.75 z"
         sodipodi:ry="11.25"
         sodipodi:rx="11.25"
         sodipodi:cy="78.75"
         sodipodi:cx="78.75"
         id="path3769-7"
         style="fill:none;stroke:#ff00ff;stroke-width:1.92307675;stroke-linecap:round;stroke-linejoin:round;stroke-miterlimit:4;stroke-opacity:1;stroke-dasharray:none;stroke-dashoffset:0"
         sodipodi:type="arc" />
      <g
         transform="translate(135,-614.7)"
         id="g3810">
        <path
           sodipodi:type="arc"
           style="fill:none;stroke:#ff00ff;stroke-width:1.92307675;stroke-linecap:round;stroke-linejoin:round;stroke-miterlimit:4;stroke-opacity:1;stroke-dasharray:none;stroke-dashoffset:0"
           id="path3769-5"
           sodipodi:cx="78.75"
           sodipodi:cy="78.75"
           sodipodi:rx="11.25"
           sodipodi:ry="11.25"
           d="M 90,78.75 C 90,84.963203 84.963203,90 78.75,90 72.536797,90 67.5,84.963203 67.5,78.75 67.5,72.536797 72.536797,67.5 78.75,67.5 84.963203,67.5 90,72.536797 90,78.75 z"
           transform="matrix(0.55275591,0,0,0.55275591,-88.529528,575.11172)" />
        <path
           sodipodi:type="arc"
           style="fill:none;stroke:#ff00ff;stroke-width:1.92307675;stroke-linecap:round;stroke-linejoin:round;stroke-miterlimit:4;stroke-opacity:1;stroke-dasharray:none;stroke-dashoffset:0"
           id="path3769-7-6"
           sodipodi:cx="78.75"
           sodipodi:cy="78.75"
           sodipodi:rx="11.25"
           sodipodi:ry="11.25"
           d="M 90,78.75 C 90,84.963203 84.963203,90 78.75,90 72.536797,90 67.5,84.963203 67.5,78.75 67.5,72.536797 72.536797,67.5 78.75,67.5 84.963203,67.5 90,72.536797 90,78.75 z"
           transform="matrix(0.55275591,0,0,0.55275591,413.67047,575.11172)" />
      </g>
    </g>
    <path
       sodipodi:type="arc"
       style="fill:none;stroke:#000000;stroke-width:0.93708897;stroke-linecap:round;stroke-linejoin:round;stroke-miterlimit:4;stroke-opacity:1;stroke-dasharray:none;stroke-dashoffset:0"
       id="path3821"
       sodipodi:cx="303.75"
       sodipodi:cy="348.75"
       sodipodi:rx="213.75"
       sodipodi:ry="213.75"
       d="M 517.5,348.75 C 517.5,466.80087 421.80087,562.5 303.75,562.5 185.69913,562.5 90,466.80087 90,348.75 90,230.69913 185.69913,135 303.75,135 421.80087,135 517.5,230.69913 517.5,348.75 z"
       transform="matrix(1.1343556,0,0,1.1343556,-7.0605135,319.3065)" />
  </g>
</svg>
